HIERARCHY
ROOT pelvis
{
  OFFSET 0 100 0
  CHANNELS 6 Xposition Yposition Zposition Zrotation Xrotation Yrotation
  JOINT pelvis_right_femur
  {
    OFFSET -10.78128 -3.44521 -0.5502486
    CHANNELS 3 Zrotation Xrotation Yrotation
    JOINT right_femur_tibia
    {
      OFFSET -0.8047443 -44.0398 -0.1307829
      CHANNELS 3 Zrotation Xrotation Yrotation
      JOINT right_tibia_foot
      {
        OFFSET 3.006224 -47.83518 -5
        CHANNELS 3 Zrotation Xrotation Yrotation
        End Site
        {
          OFFSET 0 -5 15
        }
      }
    }
  }
  JOINT pelvis_left_femur
  {
    OFFSET 10.78128 -3.44521 -0.5502486
    CHANNELS 3 Zrotation Xrotation Yrotation
    JOINT left_femur_tibia
    {
      OFFSET 0.8047443 -44.0398 -0.1307829
      CHANNELS 3 Zrotation Xrotation Yrotation
      JOINT left_tibia_foot
      {
        OFFSET -4.370144 -48.10324 -4.275266
        CHANNELS 3 Zrotation Xrotation Yrotation
        End Site
        {
          OFFSET 0 -5 15
        }
      }
    }
  }
  JOINT pelvis_spine1
  {
    OFFSET 0 6.468898 -3.129235
    CHANNELS 3 Zrotation Xrotation Yrotation
    JOINT spine1
    {
      OFFSET 0 23.15396 4.99043
      CHANNELS 3 Zrotation Xrotation Yrotation
      JOINT spine2
      {
        OFFSET 0 20.79997 -5.064912
        CHANNELS 3 Zrotation Xrotation Yrotation
        JOINT neck
        {
          OFFSET 0 14.38658 9.616178
          CHANNELS 3 Zrotation Xrotation Yrotation
          End Site
          {
            OFFSET 0 20 0
          }
        }
      }
      JOINT right_manubrium
      {
        OFFSET -5.722621 16.35077 3.967754
        CHANNELS 3 Zrotation Xrotation Yrotation
        JOINT right_clavicle
        {
          OFFSET -13.16364 1.694482 -4.693211
          CHANNELS 3 Zrotation Xrotation Yrotation
          JOINT right_humerus
          {
            OFFSET -28.5034 -0.3100689 -2.792744
            CHANNELS 3 Zrotation Xrotation Yrotation
            JOINT right_radius
            {
              OFFSET -25.15693 0.02248979 -1.271978
              CHANNELS 3 Zrotation Xrotation Yrotation
              End Site
              {
                OFFSET -15 0 0
              }
            }
          }
        }
      }
      JOINT left_manubrium
      {
        OFFSET 5.722621 16.35077 3.967754
        CHANNELS 3 Zrotation Xrotation Yrotation
        JOINT left_clavicle
        {
          OFFSET 13.16364 1.694482 -4.693211
          CHANNELS 3 Zrotation Xrotation Yrotation
          JOINT left_humerus
          {
            OFFSET 29.39168 -1.063119 -2.237045
            CHANNELS 3 Zrotation Xrotation Yrotation
            JOINT left_radius
            {
              OFFSET 24.59957 -0.9528479 0.9047498
              CHANNELS 3 Zrotation Xrotation Yrotation
              End Site
              {
                OFFSET 15 -0 -0
              }
            }
          }
        }
      }
    }
  }
}
MOTION
Frames: 13
Frame Time: 0.0416666666667
-1636.544 108.4534 1178.599 -2.882447 5.705138 -129.5842 7.164147 8.984658 -3.052938 -0 13.79252 -0 -7.729933 -14.01361 2.484343 5.5193 -20.27185 -4.517306 -0 17.51615 -0 5.092588 1.896128 10.73237 1.02215 -7.762914 5.976941 2.014747 19.91057 -6.992447 1.196171 19.30905 2.190677 1.83515 -18.50653 3.447003 8.496567 -29.24242 17.89803 78.8583 11.33072 -9.440181 -0 0 29.6571 -32.45296 26.51599 21.92999 4.693671 -27.03297 -7.834417 -98.76568 9.63539 32.22852 -0 0 2.339083 14.31987 22.42158 -7.221649
-1640.965 108.4435 1176.446 -2.857726 5.71753 -129.8326 7.164147 8.984658 -3.052938 -0 13.79252 -0 -7.729933 -14.01361 2.484343 5.5193 -20.27185 -4.517306 -0 17.51615 -0 5.092588 1.896128 10.73237 1.02215 -7.762914 5.976941 2.014747 19.91057 -6.992447 1.196171 19.30905 2.190677 1.83515 -18.50653 3.447003 8.496567 -29.24242 17.89803 78.8583 11.33072 -9.440181 -0 0 29.6571 -32.45296 26.51599 21.92999 4.693671 -27.03297 -7.834417 -98.76568 9.63539 32.22852 -0 0 2.339083 14.31987 22.42158 -7.221649
-1645.378 108.4335 1174.275 -2.83295 5.729816 -130.081 7.164147 8.984658 -3.052938 -0 13.79252 -0 -7.729933 -14.01361 2.484343 5.5193 -20.27185 -4.517306 -0 17.51615 -0 5.092588 1.896128 10.73237 1.02215 -7.762914 5.976941 2.014747 19.91057 -6.992447 1.196171 19.30905 2.190677 1.83515 -18.50653 3.447003 8.496567 -29.24242 17.89803 78.8583 11.33072 -9.440181 -0 0 29.6571 -32.45296 26.51599 21.92999 4.693671 -27.03297 -7.834417 -98.76568 9.63539 32.22852 -0 0 2.339083 14.31987 22.42158 -7.221649
-1649.781 108.4236 1172.085 -2.808121 5.741994 -130.3294 7.164147 8.984658 -3.052938 -0 13.79252 -0 -7.729933 -14.01361 2.484343 5.5193 -20.27185 -4.517306 -0 17.51615 -0 5.092588 1.896128 10.73237 1.02215 -7.762914 5.976941 2.014747 19.91057 -6.992447 1.196171 19.30905 2.190677 1.83515 -18.50653 3.447003 8.496567 -29.24242 17.89803 78.8583 11.33072 -9.440181 -0 0 29.6571 -32.45296 26.51599 21.92999 4.693671 -27.03297 -7.834417 -98.76568 9.63539 32.22852 -0 0 2.339083 14.31987 22.42158 -7.221649
-1654.175 108.4137 1169.876 -2.783239 5.754065 -130.5779 7.164147 8.984658 -3.052938 -0 13.79252 -0 -7.729933 -14.01361 2.484343 5.5193 -20.27185 -4.517306 -0 17.51615 -0 5.092588 1.896128 10.73237 1.02215 -7.762914 5.976941 2.014747 19.91057 -6.992447 1.196171 19.30905 2.190677 1.83515 -18.50653 3.447003 8.496567 -29.24242 17.89803 78.8583 11.33072 -9.440181 -0 0 29.6571 -32.45296 26.51599 21.92999 4.693671 -27.03297 -7.834417 -98.76568 9.63539 32.22852 -0 0 2.339083 14.31987 22.42158 -7.221649
-1658.559 108.4038 1167.647 -2.758303 5.766029 -130.8263 7.164147 8.984658 -3.052938 -0 13.79252 -0 -7.729933 -14.01361 2.484343 5.5193 -20.27185 -4.517306 -0 17.51615 -0 5.092588 1.896128 10.73237 1.02215 -7.762914 5.976941 2.014747 19.91057 -6.992447 1.196171 19.30905 2.190677 1.83515 -18.50653 3.447003 8.496567 -29.24242 17.89803 78.8583 11.33072 -9.440181 -0 0 29.6571 -32.45296 26.51599 21.92999 4.693671 -27.03297 -7.834417 -98.76568 9.63539 32.22852 -0 0 2.339083 14.31987 22.42158 -7.221649
-1662.933 108.3939 1165.4 -2.733315 5.777885 -131.0748 7.164147 8.984658 -3.052938 -0 13.79252 -0 -7.729933 -14.01361 2.484343 5.5193 -20.27185 -4.517306 -0 17.51615 -0 5.092588 1.896128 10.73237 1.02215 -7.762914 5.976941 2.014747 19.91057 -6.992447 1.196171 19.30905 2.190677 1.83515 -18.50653 3.447003 8.496567 -29.24242 17.89803 78.8583 11.33072 -9.440181 -0 0 29.6571 -32.45296 26.51599 21.92999 4.693671 -27.03297 -7.834417 -98.76568 9.63539 32.22852 -0 0 2.339083 14.31987 22.42158 -7.221649
-1667.298 108.384 1163.134 -2.708276 5.789633 -131.3233 7.164147 8.984658 -3.052938 -0 13.79252 -0 -7.729933 -14.01361 2.484343 5.5193 -20.27185 -4.517306 -0 17.51615 -0 5.092588 1.896128 10.73237 1.02215 -7.762914 5.976941 2.014747 19.91057 -6.992447 1.196171 19.30905 2.190677 1.83515 -18.50653 3.447003 8.496567 -29.24242 17.89803 78.8583 11.33072 -9.440181 -0 0 29.6571 -32.45296 26.51599 21.92999 4.693671 -27.03297 -7.834417 -98.76568 9.63539 32.22852 -0 0 2.339083 14.31987 22.42158 -7.221649
-1671.653 108.3741 1160.849 -2.683184 5.801273 -131.5717 7.164147 8.984658 -3.052938 -0 13.79252 -0 -7.729933 -14.01361 2.484343 5.5193 -20.27185 -4.517306 -0 17.51615 -0 5.092588 1.896128 10.73237 1.02215 -7.762914 5.976941 2.014747 19.91057 -6.992447 1.196171 19.30905 2.190677 1.83515 -18.50653 3.447003 8.496567 -29.24242 17.89803 78.8583 11.33072 -9.440181 -0 0 29.6571 -32.45296 26.51599 21.92999 4.693671 -27.03297 -7.834417 -98.76568 9.63539 32.22852 -0 0 2.339083 14.31987 22.42158 -7.221649
-1675.998 108.3642 1158.545 -2.658042 5.812804 -131.8202 7.164147 8.984658 -3.052938 -0 13.79252 -0 -7.729933 -14.01361 2.484343 5.5193 -20.27185 -4.517306 -0 17.51615 -0 5.092588 1.896128 10.73237 1.02215 -7.762914 5.976941 2.014747 19.91057 -6.992447 1.196171 19.30905 2.190677 1.83515 -18.50653 3.447003 8.496567 -29.24242 17.89803 78.8583 11.33072 -9.440181 -0 0 29.6571 -32.45296 26.51599 21.92999 4.693671 -27.03297 -7.834417 -98.76568 9.63539 32.22852 -0 0 2.339083 14.31987 22.42158 -7.221649
-1680.333 108.3543 1156.223 -2.632849 5.824227 -132.0687 7.164147 8.984658 -3.052938 -0 13.79252 -0 -7.729933 -14.01361 2.484343 5.5193 -20.27185 -4.517306 -0 17.51615 -0 5.092588 1.896128 10.73237 1.02215 -7.762914 5.976941 2.014747 19.91057 -6.992447 1.196171 19.30905 2.190677 1.83515 -18.50653 3.447003 8.496567 -29.24242 17.89803 78.8583 11.33072 -9.440181 -0 0 29.6571 -32.45296 26.51599 21.92999 4.693671 -27.03297 -7.834417 -98.76568 9.63539 32.22852 -0 0 2.339083 14.31987 22.42158 -7.221649
-1684.658 108.3444 1153.882 -2.607606 5.835541 -132.3173 7.164147 8.984658 -3.052938 -0 13.79252 -0 -7.729933 -14.01361 2.484343 5.5193 -20.27185 -4.517306 -0 17.51615 -0 5.092588 1.896128 10.73237 1.02215 -7.762914 5.976941 2.014747 19.91057 -6.992447 1.196171 19.30905 2.190677 1.83515 -18.50653 3.447003 8.496567 -29.24242 17.89803 78.8583 11.33072 -9.440181 -0 0 29.6571 -32.45296 26.51599 21.92999 4.693671 -27.03297 -7.834417 -98.76568 9.63539 32.22852 -0 0 2.339083 14.31987 22.42158 -7.221649
-1688.972 108.3345 1151.522 -2.582314 5.846746 -132.5658 7.164147 8.984658 -3.052938 -0 13.79252 -0 -7.729933 -14.01361 2.484343 5.5193 -20.27185 -4.517306 -0 17.51615 -0 5.092588 1.896128 10.73237 1.02215 -7.762914 5.976941 2.014747 19.91057 -6.992447 1.196171 19.30905 2.190677 1.83515 -18.50653 3.447003 8.496567 -29.24242 17.89803 78.8583 11.33072 -9.440181 -0 0 29.6571 -32.45296 26.51599 21.92999 4.693671 -27.03297 -7.834417 -98.76568 9.63539 32.22852 -0 0 2.339083 14.31987 22.42158 -7.221649
